%TF.GenerationSoftware,KiCad,Pcbnew,(6.0.4)*%
%TF.CreationDate,2022-03-31T21:50:03-03:00*%
%TF.ProjectId,vgm-teensy,76676d2d-7465-4656-9e73-792e6b696361,rev?*%
%TF.SameCoordinates,Original*%
%TF.FileFunction,Soldermask,Bot*%
%TF.FilePolarity,Negative*%
%FSLAX46Y46*%
G04 Gerber Fmt 4.6, Leading zero omitted, Abs format (unit mm)*
G04 Created by KiCad (PCBNEW (6.0.4)) date 2022-03-31 21:50:03*
%MOMM*%
%LPD*%
G01*
G04 APERTURE LIST*
G04 Aperture macros list*
%AMRoundRect*
0 Rectangle with rounded corners*
0 $1 Rounding radius*
0 $2 $3 $4 $5 $6 $7 $8 $9 X,Y pos of 4 corners*
0 Add a 4 corners polygon primitive as box body*
4,1,4,$2,$3,$4,$5,$6,$7,$8,$9,$2,$3,0*
0 Add four circle primitives for the rounded corners*
1,1,$1+$1,$2,$3*
1,1,$1+$1,$4,$5*
1,1,$1+$1,$6,$7*
1,1,$1+$1,$8,$9*
0 Add four rect primitives between the rounded corners*
20,1,$1+$1,$2,$3,$4,$5,0*
20,1,$1+$1,$4,$5,$6,$7,0*
20,1,$1+$1,$6,$7,$8,$9,0*
20,1,$1+$1,$8,$9,$2,$3,0*%
G04 Aperture macros list end*
%ADD10C,1.100000*%
%ADD11O,2.300000X1.800000*%
%ADD12O,2.300000X2.000000*%
%ADD13C,3.200000*%
%ADD14R,1.600000X1.600000*%
%ADD15O,1.600000X1.600000*%
%ADD16C,1.600000*%
%ADD17R,1.700000X1.700000*%
%ADD18O,1.700000X1.700000*%
%ADD19R,2.540000X2.540000*%
%ADD20C,2.540000*%
%ADD21R,3.500000X3.500000*%
%ADD22RoundRect,0.750000X-0.750000X-1.000000X0.750000X-1.000000X0.750000X1.000000X-0.750000X1.000000X0*%
%ADD23RoundRect,0.875000X-0.875000X-0.875000X0.875000X-0.875000X0.875000X0.875000X-0.875000X0.875000X0*%
%ADD24R,1.905000X2.000000*%
%ADD25O,1.905000X2.000000*%
%ADD26C,1.524000*%
%ADD27RoundRect,0.250000X0.475000X-0.337500X0.475000X0.337500X-0.475000X0.337500X-0.475000X-0.337500X0*%
%ADD28RoundRect,0.250000X-0.337500X-0.475000X0.337500X-0.475000X0.337500X0.475000X-0.337500X0.475000X0*%
%ADD29RoundRect,0.250000X-0.350000X-0.450000X0.350000X-0.450000X0.350000X0.450000X-0.350000X0.450000X0*%
%ADD30RoundRect,0.250000X0.350000X0.450000X-0.350000X0.450000X-0.350000X-0.450000X0.350000X-0.450000X0*%
%ADD31RoundRect,0.250000X-0.450000X0.350000X-0.450000X-0.350000X0.450000X-0.350000X0.450000X0.350000X0*%
%ADD32RoundRect,0.150000X-0.850000X-0.150000X0.850000X-0.150000X0.850000X0.150000X-0.850000X0.150000X0*%
G04 APERTURE END LIST*
D10*
%TO.C,J1*%
X162616000Y-99564000D03*
X162616000Y-104564000D03*
D11*
X158616000Y-104364000D03*
X158616000Y-99764000D03*
D12*
X166116000Y-104814000D03*
X166116000Y-99314000D03*
%TD*%
D13*
%TO.C,H2*%
X110363000Y-73406000D03*
%TD*%
D14*
%TO.C,U4*%
X124973000Y-129037000D03*
D15*
X124973000Y-126497000D03*
X124973000Y-123957000D03*
X124973000Y-121417000D03*
X124973000Y-118877000D03*
X124973000Y-116337000D03*
X124973000Y-113797000D03*
X124973000Y-111257000D03*
X124973000Y-108717000D03*
X124973000Y-106177000D03*
X124973000Y-103637000D03*
X124973000Y-101097000D03*
X109733000Y-101097000D03*
X109733000Y-103637000D03*
X109733000Y-106177000D03*
X109733000Y-108717000D03*
X109733000Y-111257000D03*
X109733000Y-113797000D03*
X109733000Y-116337000D03*
X109733000Y-118877000D03*
X109733000Y-121417000D03*
X109733000Y-123957000D03*
X109733000Y-126497000D03*
X109733000Y-129037000D03*
%TD*%
D14*
%TO.C,C3*%
X144717888Y-104902000D03*
D16*
X147217888Y-104902000D03*
%TD*%
D17*
%TO.C,JP2*%
X153289000Y-61209000D03*
D18*
X153289000Y-63749000D03*
%TD*%
D16*
%TO.C,C8*%
X146239000Y-112796000D03*
X146239000Y-115296000D03*
%TD*%
D14*
%TO.C,C6*%
X150686888Y-104902000D03*
D16*
X153186888Y-104902000D03*
%TD*%
D17*
%TO.C,J3*%
X124577000Y-74295000D03*
D18*
X122037000Y-74295000D03*
X119497000Y-74295000D03*
X116957000Y-74295000D03*
%TD*%
D14*
%TO.C,C4*%
X144717888Y-98933000D03*
D16*
X147217888Y-98933000D03*
%TD*%
D13*
%TO.C,H1*%
X168148000Y-129286000D03*
%TD*%
D14*
%TO.C,U1*%
X107950000Y-93980000D03*
D16*
X110490000Y-93980000D03*
X113030000Y-93980000D03*
X115570000Y-93980000D03*
X118110000Y-93980000D03*
X120650000Y-93980000D03*
X123190000Y-93980000D03*
X125730000Y-93980000D03*
X128270000Y-93980000D03*
X130810000Y-93980000D03*
X133350000Y-93980000D03*
X135890000Y-93980000D03*
X138430000Y-93980000D03*
X140970000Y-93980000D03*
X143510000Y-93980000D03*
X146050000Y-93980000D03*
X148590000Y-93980000D03*
X151130000Y-93980000D03*
X153670000Y-93980000D03*
X156210000Y-93980000D03*
X158750000Y-93980000D03*
X161290000Y-93980000D03*
X163830000Y-93980000D03*
X166370000Y-93980000D03*
X166370000Y-78740000D03*
X163830000Y-78740000D03*
X161290000Y-78740000D03*
X158750000Y-78740000D03*
X156210000Y-78740000D03*
X153670000Y-78740000D03*
X151130000Y-78740000D03*
X148590000Y-78740000D03*
X146050000Y-78740000D03*
X143510000Y-78740000D03*
X140970000Y-78740000D03*
X138430000Y-78740000D03*
X135890000Y-78740000D03*
X133350000Y-78740000D03*
X130810000Y-78740000D03*
X128270000Y-78740000D03*
X125730000Y-78740000D03*
X123190000Y-78740000D03*
X120650000Y-78740000D03*
X118110000Y-78740000D03*
X115570000Y-78740000D03*
X113030000Y-78740000D03*
X110490000Y-78740000D03*
X107950000Y-78740000D03*
%TD*%
D14*
%TO.C,C5*%
X150686888Y-98933000D03*
D16*
X153186888Y-98933000D03*
%TD*%
D19*
%TO.C,U7*%
X130048000Y-62865000D03*
D20*
X130048000Y-73025000D03*
X147828000Y-73025000D03*
X147828000Y-62865000D03*
%TD*%
D21*
%TO.C,J2*%
X123094000Y-64193500D03*
D22*
X117094000Y-64193500D03*
D23*
X120094000Y-68893500D03*
%TD*%
D24*
%TO.C,U8*%
X158623000Y-63246000D03*
D25*
X161163000Y-63246000D03*
X163703000Y-63246000D03*
%TD*%
D16*
%TO.C,C9*%
X157415000Y-112796000D03*
X157415000Y-115296000D03*
%TD*%
D26*
%TO.C,U2*%
X138938000Y-126619000D03*
X141478000Y-126619000D03*
X144018000Y-126619000D03*
X146558000Y-126619000D03*
X149098000Y-126619000D03*
X151638000Y-126619000D03*
X154178000Y-126619000D03*
%TD*%
D27*
%TO.C,C11*%
X115316000Y-126513500D03*
X115316000Y-124438500D03*
%TD*%
D28*
%TO.C,C10*%
X133455500Y-107442000D03*
X135530500Y-107442000D03*
%TD*%
D29*
%TO.C,R9*%
X150765000Y-102235000D03*
X152765000Y-102235000D03*
%TD*%
D27*
%TO.C,C12*%
X130937000Y-105558500D03*
X130937000Y-103483500D03*
%TD*%
D29*
%TO.C,R15*%
X150892000Y-107442000D03*
X152892000Y-107442000D03*
%TD*%
D30*
%TO.C,R8*%
X149463000Y-96393000D03*
X147463000Y-96393000D03*
%TD*%
D31*
%TO.C,R13*%
X142113000Y-97933000D03*
X142113000Y-99933000D03*
%TD*%
D30*
%TO.C,R12*%
X146796000Y-107442000D03*
X144796000Y-107442000D03*
%TD*%
D32*
%TO.C,U3*%
X130596000Y-121412000D03*
X130596000Y-120142000D03*
X130596000Y-118872000D03*
X130596000Y-117602000D03*
X130596000Y-116332000D03*
X130596000Y-115062000D03*
X130596000Y-113792000D03*
X130596000Y-112522000D03*
X135596000Y-112522000D03*
X135596000Y-113792000D03*
X135596000Y-115062000D03*
X135596000Y-116332000D03*
X135596000Y-117602000D03*
X135596000Y-118872000D03*
X135596000Y-120142000D03*
X135596000Y-121412000D03*
%TD*%
D31*
%TO.C,R14*%
X155829000Y-97933000D03*
X155829000Y-99933000D03*
%TD*%
D29*
%TO.C,R7*%
X144796000Y-102235000D03*
X146796000Y-102235000D03*
%TD*%
M02*
