%TF.GenerationSoftware,KiCad,Pcbnew,(6.0.4)*%
%TF.CreationDate,2022-03-31T21:50:03-03:00*%
%TF.ProjectId,vgm-teensy,76676d2d-7465-4656-9e73-792e6b696361,rev?*%
%TF.SameCoordinates,Original*%
%TF.FileFunction,Legend,Bot*%
%TF.FilePolarity,Positive*%
%FSLAX46Y46*%
G04 Gerber Fmt 4.6, Leading zero omitted, Abs format (unit mm)*
G04 Created by KiCad (PCBNEW (6.0.4)) date 2022-03-31 21:50:03*
%MOMM*%
%LPD*%
G01*
G04 APERTURE LIST*
%ADD10C,0.150000*%
%ADD11C,0.120000*%
G04 APERTURE END LIST*
D10*
%TO.C,C11*%
X115831857Y-128627142D02*
X115879476Y-128674761D01*
X116022333Y-128722380D01*
X116117571Y-128722380D01*
X116260428Y-128674761D01*
X116355666Y-128579523D01*
X116403285Y-128484285D01*
X116450904Y-128293809D01*
X116450904Y-128150952D01*
X116403285Y-127960476D01*
X116355666Y-127865238D01*
X116260428Y-127770000D01*
X116117571Y-127722380D01*
X116022333Y-127722380D01*
X115879476Y-127770000D01*
X115831857Y-127817619D01*
X114879476Y-128722380D02*
X115450904Y-128722380D01*
X115165190Y-128722380D02*
X115165190Y-127722380D01*
X115260428Y-127865238D01*
X115355666Y-127960476D01*
X115450904Y-128008095D01*
X113927095Y-128722380D02*
X114498523Y-128722380D01*
X114212809Y-128722380D02*
X114212809Y-127722380D01*
X114308047Y-127865238D01*
X114403285Y-127960476D01*
X114498523Y-128008095D01*
%TO.C,C10*%
X135135857Y-109577142D02*
X135183476Y-109624761D01*
X135326333Y-109672380D01*
X135421571Y-109672380D01*
X135564428Y-109624761D01*
X135659666Y-109529523D01*
X135707285Y-109434285D01*
X135754904Y-109243809D01*
X135754904Y-109100952D01*
X135707285Y-108910476D01*
X135659666Y-108815238D01*
X135564428Y-108720000D01*
X135421571Y-108672380D01*
X135326333Y-108672380D01*
X135183476Y-108720000D01*
X135135857Y-108767619D01*
X134183476Y-109672380D02*
X134754904Y-109672380D01*
X134469190Y-109672380D02*
X134469190Y-108672380D01*
X134564428Y-108815238D01*
X134659666Y-108910476D01*
X134754904Y-108958095D01*
X133564428Y-108672380D02*
X133469190Y-108672380D01*
X133373952Y-108720000D01*
X133326333Y-108767619D01*
X133278714Y-108862857D01*
X133231095Y-109053333D01*
X133231095Y-109291428D01*
X133278714Y-109481904D01*
X133326333Y-109577142D01*
X133373952Y-109624761D01*
X133469190Y-109672380D01*
X133564428Y-109672380D01*
X133659666Y-109624761D01*
X133707285Y-109577142D01*
X133754904Y-109481904D01*
X133802523Y-109291428D01*
X133802523Y-109053333D01*
X133754904Y-108862857D01*
X133707285Y-108767619D01*
X133659666Y-108720000D01*
X133564428Y-108672380D01*
%TO.C,R9*%
X154757380Y-102068333D02*
X154281190Y-101735000D01*
X154757380Y-101496904D02*
X153757380Y-101496904D01*
X153757380Y-101877857D01*
X153805000Y-101973095D01*
X153852619Y-102020714D01*
X153947857Y-102068333D01*
X154090714Y-102068333D01*
X154185952Y-102020714D01*
X154233571Y-101973095D01*
X154281190Y-101877857D01*
X154281190Y-101496904D01*
X154757380Y-102544523D02*
X154757380Y-102735000D01*
X154709761Y-102830238D01*
X154662142Y-102877857D01*
X154519285Y-102973095D01*
X154328809Y-103020714D01*
X153947857Y-103020714D01*
X153852619Y-102973095D01*
X153805000Y-102925476D01*
X153757380Y-102830238D01*
X153757380Y-102639761D01*
X153805000Y-102544523D01*
X153852619Y-102496904D01*
X153947857Y-102449285D01*
X154185952Y-102449285D01*
X154281190Y-102496904D01*
X154328809Y-102544523D01*
X154376428Y-102639761D01*
X154376428Y-102830238D01*
X154328809Y-102925476D01*
X154281190Y-102973095D01*
X154185952Y-103020714D01*
%TO.C,C12*%
X129643142Y-103751142D02*
X129690761Y-103703523D01*
X129738380Y-103560666D01*
X129738380Y-103465428D01*
X129690761Y-103322571D01*
X129595523Y-103227333D01*
X129500285Y-103179714D01*
X129309809Y-103132095D01*
X129166952Y-103132095D01*
X128976476Y-103179714D01*
X128881238Y-103227333D01*
X128786000Y-103322571D01*
X128738380Y-103465428D01*
X128738380Y-103560666D01*
X128786000Y-103703523D01*
X128833619Y-103751142D01*
X129738380Y-104703523D02*
X129738380Y-104132095D01*
X129738380Y-104417809D02*
X128738380Y-104417809D01*
X128881238Y-104322571D01*
X128976476Y-104227333D01*
X129024095Y-104132095D01*
X128833619Y-105084476D02*
X128786000Y-105132095D01*
X128738380Y-105227333D01*
X128738380Y-105465428D01*
X128786000Y-105560666D01*
X128833619Y-105608285D01*
X128928857Y-105655904D01*
X129024095Y-105655904D01*
X129166952Y-105608285D01*
X129738380Y-105036857D01*
X129738380Y-105655904D01*
%TO.C,R15*%
X154748666Y-106992000D02*
X154415333Y-106758666D01*
X154748666Y-106592000D02*
X154048666Y-106592000D01*
X154048666Y-106858666D01*
X154082000Y-106925333D01*
X154115333Y-106958666D01*
X154182000Y-106992000D01*
X154282000Y-106992000D01*
X154348666Y-106958666D01*
X154382000Y-106925333D01*
X154415333Y-106858666D01*
X154415333Y-106592000D01*
X154748666Y-107658666D02*
X154748666Y-107258666D01*
X154748666Y-107458666D02*
X154048666Y-107458666D01*
X154148666Y-107392000D01*
X154215333Y-107325333D01*
X154248666Y-107258666D01*
X154048666Y-108292000D02*
X154048666Y-107958666D01*
X154382000Y-107925333D01*
X154348666Y-107958666D01*
X154315333Y-108025333D01*
X154315333Y-108192000D01*
X154348666Y-108258666D01*
X154382000Y-108292000D01*
X154448666Y-108325333D01*
X154615333Y-108325333D01*
X154682000Y-108292000D01*
X154715333Y-108258666D01*
X154748666Y-108192000D01*
X154748666Y-108025333D01*
X154715333Y-107958666D01*
X154682000Y-107925333D01*
%TO.C,R8*%
X146375380Y-96226333D02*
X145899190Y-95893000D01*
X146375380Y-95654904D02*
X145375380Y-95654904D01*
X145375380Y-96035857D01*
X145423000Y-96131095D01*
X145470619Y-96178714D01*
X145565857Y-96226333D01*
X145708714Y-96226333D01*
X145803952Y-96178714D01*
X145851571Y-96131095D01*
X145899190Y-96035857D01*
X145899190Y-95654904D01*
X145803952Y-96797761D02*
X145756333Y-96702523D01*
X145708714Y-96654904D01*
X145613476Y-96607285D01*
X145565857Y-96607285D01*
X145470619Y-96654904D01*
X145423000Y-96702523D01*
X145375380Y-96797761D01*
X145375380Y-96988238D01*
X145423000Y-97083476D01*
X145470619Y-97131095D01*
X145565857Y-97178714D01*
X145613476Y-97178714D01*
X145708714Y-97131095D01*
X145756333Y-97083476D01*
X145803952Y-96988238D01*
X145803952Y-96797761D01*
X145851571Y-96702523D01*
X145899190Y-96654904D01*
X145994428Y-96607285D01*
X146184904Y-96607285D01*
X146280142Y-96654904D01*
X146327761Y-96702523D01*
X146375380Y-96797761D01*
X146375380Y-96988238D01*
X146327761Y-97083476D01*
X146280142Y-97131095D01*
X146184904Y-97178714D01*
X145994428Y-97178714D01*
X145899190Y-97131095D01*
X145851571Y-97083476D01*
X145803952Y-96988238D01*
%TO.C,R13*%
X140905666Y-98483000D02*
X140572333Y-98249666D01*
X140905666Y-98083000D02*
X140205666Y-98083000D01*
X140205666Y-98349666D01*
X140239000Y-98416333D01*
X140272333Y-98449666D01*
X140339000Y-98483000D01*
X140439000Y-98483000D01*
X140505666Y-98449666D01*
X140539000Y-98416333D01*
X140572333Y-98349666D01*
X140572333Y-98083000D01*
X140905666Y-99149666D02*
X140905666Y-98749666D01*
X140905666Y-98949666D02*
X140205666Y-98949666D01*
X140305666Y-98883000D01*
X140372333Y-98816333D01*
X140405666Y-98749666D01*
X140205666Y-99383000D02*
X140205666Y-99816333D01*
X140472333Y-99583000D01*
X140472333Y-99683000D01*
X140505666Y-99749666D01*
X140539000Y-99783000D01*
X140605666Y-99816333D01*
X140772333Y-99816333D01*
X140839000Y-99783000D01*
X140872333Y-99749666D01*
X140905666Y-99683000D01*
X140905666Y-99483000D01*
X140872333Y-99416333D01*
X140839000Y-99383000D01*
%TO.C,R12*%
X146246000Y-109282666D02*
X146479333Y-108949333D01*
X146646000Y-109282666D02*
X146646000Y-108582666D01*
X146379333Y-108582666D01*
X146312666Y-108616000D01*
X146279333Y-108649333D01*
X146246000Y-108716000D01*
X146246000Y-108816000D01*
X146279333Y-108882666D01*
X146312666Y-108916000D01*
X146379333Y-108949333D01*
X146646000Y-108949333D01*
X145579333Y-109282666D02*
X145979333Y-109282666D01*
X145779333Y-109282666D02*
X145779333Y-108582666D01*
X145846000Y-108682666D01*
X145912666Y-108749333D01*
X145979333Y-108782666D01*
X145312666Y-108649333D02*
X145279333Y-108616000D01*
X145212666Y-108582666D01*
X145046000Y-108582666D01*
X144979333Y-108616000D01*
X144946000Y-108649333D01*
X144912666Y-108716000D01*
X144912666Y-108782666D01*
X144946000Y-108882666D01*
X145346000Y-109282666D01*
X144912666Y-109282666D01*
%TO.C,U3*%
X133857904Y-122319380D02*
X133857904Y-123128904D01*
X133810285Y-123224142D01*
X133762666Y-123271761D01*
X133667428Y-123319380D01*
X133476952Y-123319380D01*
X133381714Y-123271761D01*
X133334095Y-123224142D01*
X133286476Y-123128904D01*
X133286476Y-122319380D01*
X132905523Y-122319380D02*
X132286476Y-122319380D01*
X132619809Y-122700333D01*
X132476952Y-122700333D01*
X132381714Y-122747952D01*
X132334095Y-122795571D01*
X132286476Y-122890809D01*
X132286476Y-123128904D01*
X132334095Y-123224142D01*
X132381714Y-123271761D01*
X132476952Y-123319380D01*
X132762666Y-123319380D01*
X132857904Y-123271761D01*
X132905523Y-123224142D01*
%TO.C,R14*%
X157669666Y-97340000D02*
X157336333Y-97106666D01*
X157669666Y-96940000D02*
X156969666Y-96940000D01*
X156969666Y-97206666D01*
X157003000Y-97273333D01*
X157036333Y-97306666D01*
X157103000Y-97340000D01*
X157203000Y-97340000D01*
X157269666Y-97306666D01*
X157303000Y-97273333D01*
X157336333Y-97206666D01*
X157336333Y-96940000D01*
X157669666Y-98006666D02*
X157669666Y-97606666D01*
X157669666Y-97806666D02*
X156969666Y-97806666D01*
X157069666Y-97740000D01*
X157136333Y-97673333D01*
X157169666Y-97606666D01*
X157203000Y-98606666D02*
X157669666Y-98606666D01*
X156936333Y-98440000D02*
X157436333Y-98273333D01*
X157436333Y-98706666D01*
%TO.C,R7*%
X148652666Y-102118333D02*
X148319333Y-101885000D01*
X148652666Y-101718333D02*
X147952666Y-101718333D01*
X147952666Y-101985000D01*
X147986000Y-102051666D01*
X148019333Y-102085000D01*
X148086000Y-102118333D01*
X148186000Y-102118333D01*
X148252666Y-102085000D01*
X148286000Y-102051666D01*
X148319333Y-101985000D01*
X148319333Y-101718333D01*
X147952666Y-102351666D02*
X147952666Y-102818333D01*
X148652666Y-102518333D01*
D11*
%TO.C,C11*%
X114581000Y-125737252D02*
X114581000Y-125214748D01*
X116051000Y-125737252D02*
X116051000Y-125214748D01*
%TO.C,C10*%
X134231748Y-108177000D02*
X134754252Y-108177000D01*
X134231748Y-106707000D02*
X134754252Y-106707000D01*
%TO.C,R9*%
X151537936Y-102970000D02*
X151992064Y-102970000D01*
X151537936Y-101500000D02*
X151992064Y-101500000D01*
%TO.C,C12*%
X131672000Y-104782252D02*
X131672000Y-104259748D01*
X130202000Y-104782252D02*
X130202000Y-104259748D01*
%TO.C,R15*%
X151664936Y-106707000D02*
X152119064Y-106707000D01*
X151664936Y-108177000D02*
X152119064Y-108177000D01*
%TO.C,R8*%
X148690064Y-95658000D02*
X148235936Y-95658000D01*
X148690064Y-97128000D02*
X148235936Y-97128000D01*
%TO.C,R13*%
X142848000Y-98705936D02*
X142848000Y-99160064D01*
X141378000Y-98705936D02*
X141378000Y-99160064D01*
%TO.C,R12*%
X146023064Y-108177000D02*
X145568936Y-108177000D01*
X146023064Y-106707000D02*
X145568936Y-106707000D01*
%TO.C,U3*%
X133096000Y-122027000D02*
X129596000Y-122027000D01*
X133096000Y-122027000D02*
X135046000Y-122027000D01*
X133096000Y-111907000D02*
X131146000Y-111907000D01*
X133096000Y-111907000D02*
X135046000Y-111907000D01*
%TO.C,R14*%
X155094000Y-98705936D02*
X155094000Y-99160064D01*
X156564000Y-98705936D02*
X156564000Y-99160064D01*
%TO.C,R7*%
X145568936Y-102970000D02*
X146023064Y-102970000D01*
X145568936Y-101500000D02*
X146023064Y-101500000D01*
%TD*%
M02*
