M48
; DRILL file {KiCad (6.0.4)} date Thu Mar 31 21:50:04 2022
; FORMAT={-:-/ absolute / inch / decimal}
; #@! TF.CreationDate,2022-03-31T21:50:04-03:00
; #@! TF.GenerationSoftware,Kicad,Pcbnew,(6.0.4)
; #@! TF.FileFunction,MixedPlating,1,2
FMAT,2
INCH
; #@! TA.AperFunction,Plated,PTH,ViaDrill
T1C0.0157
; #@! TA.AperFunction,Plated,PTH,ComponentDrill
T2C0.0300
; #@! TA.AperFunction,Plated,PTH,ComponentDrill
T3C0.0315
; #@! TA.AperFunction,Plated,PTH,ComponentDrill
T4C0.0394
; #@! TA.AperFunction,Plated,PTH,ComponentDrill
T5C0.0433
; #@! TA.AperFunction,NonPlated,NPTH,ComponentDrill
T6C0.0433
; #@! TA.AperFunction,NonPlated,NPTH,ComponentDrill
T7C0.1260
%
G90
G05
T1
X5.17Y-3.92
X5.2273Y-4.0006
X5.2273Y-4.04
X5.2273Y-4.085
X5.23Y-4.155
X5.26Y-4.51
X5.34Y-4.165
X5.34Y-4.37
X5.53Y-4.395
X6.09Y-4.34
X6.18Y-4.695
X6.425Y-2.84
T2
X5.47Y-4.985
X5.57Y-4.985
X5.67Y-4.985
X5.77Y-4.985
X5.87Y-4.985
X5.97Y-4.985
X6.07Y-4.985
T3
X4.3202Y-3.9802
X4.3202Y-4.0802
X4.3202Y-4.1802
X4.3202Y-4.2802
X4.3202Y-4.3802
X4.3202Y-4.4802
X4.3202Y-4.5802
X4.3202Y-4.6802
X4.3202Y-4.7802
X4.3202Y-4.8802
X4.3202Y-4.9802
X4.3202Y-5.0802
X4.9202Y-3.9802
X4.9202Y-4.0802
X4.9202Y-4.1802
X4.9202Y-4.2802
X4.9202Y-4.3802
X4.9202Y-4.4802
X4.9202Y-4.5802
X4.9202Y-4.6802
X4.9202Y-4.7802
X4.9202Y-4.8802
X4.9202Y-4.9802
X4.9202Y-5.0802
X5.6976Y-3.895
X5.6976Y-4.13
X5.7574Y-4.4408
X5.7574Y-4.5392
X5.796Y-3.895
X5.796Y-4.13
X5.9326Y-3.895
X5.9326Y-4.13
X6.031Y-3.895
X6.031Y-4.13
X6.1974Y-4.4408
X6.1974Y-4.5392
T4
X4.6046Y-2.925
X4.7046Y-2.925
X4.8046Y-2.925
X4.9046Y-2.925
X5.12Y-2.475
X5.12Y-2.875
X5.82Y-2.475
X5.82Y-2.875
X6.035Y-2.4098
X6.035Y-2.5098
T5
X4.25Y-3.1
X4.25Y-3.7
X4.35Y-3.1
X4.35Y-3.7
X4.45Y-3.1
X4.45Y-3.7
X4.55Y-3.1
X4.55Y-3.7
X4.65Y-3.1
X4.65Y-3.7
X4.75Y-3.1
X4.75Y-3.7
X4.85Y-3.1
X4.85Y-3.7
X4.95Y-3.1
X4.95Y-3.7
X5.05Y-3.1
X5.05Y-3.7
X5.15Y-3.1
X5.15Y-3.7
X5.25Y-3.1
X5.25Y-3.7
X5.35Y-3.1
X5.35Y-3.7
X5.45Y-3.1
X5.45Y-3.7
X5.55Y-3.1
X5.55Y-3.7
X5.65Y-3.1
X5.65Y-3.7
X5.75Y-3.1
X5.75Y-3.7
X5.85Y-3.1
X5.85Y-3.7
X5.95Y-3.1
X5.95Y-3.7
X6.05Y-3.1
X6.05Y-3.7
X6.15Y-3.1
X6.15Y-3.7
X6.245Y-2.49
X6.25Y-3.1
X6.25Y-3.7
X6.345Y-2.49
X6.35Y-3.1
X6.35Y-3.7
X6.445Y-2.49
X6.45Y-3.1
X6.45Y-3.7
X6.55Y-3.1
X6.55Y-3.7
T6
X6.4022Y-3.9198
X6.4022Y-4.1167
T7
X4.345Y-2.89
X6.62Y-5.09
T3
G00X6.2546Y-3.9277
M15
G01X6.2349Y-3.9277
M16
G05
G00X6.2546Y-4.1088
M15
G01X6.2349Y-4.1088
M16
G05
T4
G00X4.61Y-2.4879
M15
G01X4.61Y-2.5667
M16
G05
G00X4.6887Y-2.7123
M15
G01X4.7675Y-2.7123
M16
G05
G00X4.8462Y-2.4879
M15
G01X4.8462Y-2.5667
M16
G05
G00X6.5459Y-3.91
M15
G01X6.5341Y-3.91
M16
G05
G00X6.5459Y-4.1265
M15
G01X6.5341Y-4.1265
M16
G05
T0
M30
