%TF.GenerationSoftware,KiCad,Pcbnew,(6.0.4)*%
%TF.CreationDate,2022-03-31T21:50:03-03:00*%
%TF.ProjectId,vgm-teensy,76676d2d-7465-4656-9e73-792e6b696361,rev?*%
%TF.SameCoordinates,Original*%
%TF.FileFunction,Soldermask,Top*%
%TF.FilePolarity,Negative*%
%FSLAX46Y46*%
G04 Gerber Fmt 4.6, Leading zero omitted, Abs format (unit mm)*
G04 Created by KiCad (PCBNEW (6.0.4)) date 2022-03-31 21:50:03*
%MOMM*%
%LPD*%
G01*
G04 APERTURE LIST*
G04 Aperture macros list*
%AMRoundRect*
0 Rectangle with rounded corners*
0 $1 Rounding radius*
0 $2 $3 $4 $5 $6 $7 $8 $9 X,Y pos of 4 corners*
0 Add a 4 corners polygon primitive as box body*
4,1,4,$2,$3,$4,$5,$6,$7,$8,$9,$2,$3,0*
0 Add four circle primitives for the rounded corners*
1,1,$1+$1,$2,$3*
1,1,$1+$1,$4,$5*
1,1,$1+$1,$6,$7*
1,1,$1+$1,$8,$9*
0 Add four rect primitives between the rounded corners*
20,1,$1+$1,$2,$3,$4,$5,0*
20,1,$1+$1,$4,$5,$6,$7,0*
20,1,$1+$1,$6,$7,$8,$9,0*
20,1,$1+$1,$8,$9,$2,$3,0*%
G04 Aperture macros list end*
%ADD10C,1.100000*%
%ADD11O,2.300000X1.800000*%
%ADD12O,2.300000X2.000000*%
%ADD13C,3.200000*%
%ADD14RoundRect,0.250000X-0.450000X0.350000X-0.450000X-0.350000X0.450000X-0.350000X0.450000X0.350000X0*%
%ADD15R,1.500000X2.000000*%
%ADD16R,3.800000X2.000000*%
%ADD17R,1.600000X1.600000*%
%ADD18O,1.600000X1.600000*%
%ADD19R,9.500000X3.750000*%
%ADD20C,1.600000*%
%ADD21RoundRect,0.250000X-0.337500X-0.475000X0.337500X-0.475000X0.337500X0.475000X-0.337500X0.475000X0*%
%ADD22C,1.000000*%
%ADD23RoundRect,0.250000X-0.350000X-0.450000X0.350000X-0.450000X0.350000X0.450000X-0.350000X0.450000X0*%
%ADD24RoundRect,0.250000X0.475000X-0.337500X0.475000X0.337500X-0.475000X0.337500X-0.475000X-0.337500X0*%
%ADD25R,1.700000X1.700000*%
%ADD26O,1.700000X1.700000*%
%ADD27R,2.540000X2.540000*%
%ADD28C,2.540000*%
%ADD29RoundRect,0.150000X0.825000X0.150000X-0.825000X0.150000X-0.825000X-0.150000X0.825000X-0.150000X0*%
%ADD30RoundRect,0.100000X0.637500X0.100000X-0.637500X0.100000X-0.637500X-0.100000X0.637500X-0.100000X0*%
%ADD31R,3.500000X3.500000*%
%ADD32RoundRect,0.750000X-0.750000X-1.000000X0.750000X-1.000000X0.750000X1.000000X-0.750000X1.000000X0*%
%ADD33RoundRect,0.875000X-0.875000X-0.875000X0.875000X-0.875000X0.875000X0.875000X-0.875000X0.875000X0*%
%ADD34R,1.905000X2.000000*%
%ADD35O,1.905000X2.000000*%
%ADD36C,1.524000*%
G04 APERTURE END LIST*
D10*
%TO.C,J1*%
X162616000Y-99564000D03*
X162616000Y-104564000D03*
D11*
X158616000Y-104364000D03*
X158616000Y-99764000D03*
D12*
X166116000Y-104814000D03*
X166116000Y-99314000D03*
%TD*%
D13*
%TO.C,H2*%
X110363000Y-73406000D03*
%TD*%
D14*
%TO.C,R24*%
X143953000Y-113046000D03*
X143953000Y-115046000D03*
%TD*%
D15*
%TO.C,U9*%
X137936000Y-112699000D03*
D16*
X135636000Y-118999000D03*
D15*
X135636000Y-112699000D03*
X133336000Y-112699000D03*
%TD*%
D17*
%TO.C,U4*%
X124973000Y-129037000D03*
D18*
X124973000Y-126497000D03*
X124973000Y-123957000D03*
X124973000Y-121417000D03*
X124973000Y-118877000D03*
X124973000Y-116337000D03*
X124973000Y-113797000D03*
X124973000Y-111257000D03*
X124973000Y-108717000D03*
X124973000Y-106177000D03*
X124973000Y-103637000D03*
X124973000Y-101097000D03*
X109733000Y-101097000D03*
X109733000Y-103637000D03*
X109733000Y-106177000D03*
X109733000Y-108717000D03*
X109733000Y-111257000D03*
X109733000Y-113797000D03*
X109733000Y-116337000D03*
X109733000Y-118877000D03*
X109733000Y-121417000D03*
X109733000Y-123957000D03*
X109733000Y-126497000D03*
X109733000Y-129037000D03*
%TD*%
D19*
%TO.C,L1*%
X157099000Y-67868000D03*
X157099000Y-74118000D03*
%TD*%
D17*
%TO.C,C3*%
X144717888Y-104902000D03*
D20*
X147217888Y-104902000D03*
%TD*%
D21*
%TO.C,C7*%
X151108500Y-110236000D03*
X153183500Y-110236000D03*
%TD*%
D22*
%TO.C,TP1*%
X135636000Y-98679000D03*
%TD*%
D23*
%TO.C,R20*%
X149368000Y-119253000D03*
X151368000Y-119253000D03*
%TD*%
D24*
%TO.C,C1*%
X164719000Y-74189500D03*
X164719000Y-72114500D03*
%TD*%
D23*
%TO.C,R21*%
X153432000Y-119253000D03*
X155432000Y-119253000D03*
%TD*%
D25*
%TO.C,JP2*%
X153289000Y-61209000D03*
D26*
X153289000Y-63749000D03*
%TD*%
D22*
%TO.C,TP2*%
X132715000Y-98679000D03*
%TD*%
D20*
%TO.C,C8*%
X146239000Y-112796000D03*
X146239000Y-115296000D03*
%TD*%
D17*
%TO.C,C6*%
X150686888Y-104902000D03*
D20*
X153186888Y-104902000D03*
%TD*%
D25*
%TO.C,J3*%
X124577000Y-74295000D03*
D26*
X122037000Y-74295000D03*
X119497000Y-74295000D03*
X116957000Y-74295000D03*
%TD*%
D24*
%TO.C,C2*%
X140462000Y-115083500D03*
X140462000Y-113008500D03*
%TD*%
D17*
%TO.C,C4*%
X144717888Y-98933000D03*
D20*
X147217888Y-98933000D03*
%TD*%
D13*
%TO.C,H1*%
X168148000Y-129286000D03*
%TD*%
D17*
%TO.C,U1*%
X107950000Y-93980000D03*
D20*
X110490000Y-93980000D03*
X113030000Y-93980000D03*
X115570000Y-93980000D03*
X118110000Y-93980000D03*
X120650000Y-93980000D03*
X123190000Y-93980000D03*
X125730000Y-93980000D03*
X128270000Y-93980000D03*
X130810000Y-93980000D03*
X133350000Y-93980000D03*
X135890000Y-93980000D03*
X138430000Y-93980000D03*
X140970000Y-93980000D03*
X143510000Y-93980000D03*
X146050000Y-93980000D03*
X148590000Y-93980000D03*
X151130000Y-93980000D03*
X153670000Y-93980000D03*
X156210000Y-93980000D03*
X158750000Y-93980000D03*
X161290000Y-93980000D03*
X163830000Y-93980000D03*
X166370000Y-93980000D03*
X166370000Y-78740000D03*
X163830000Y-78740000D03*
X161290000Y-78740000D03*
X158750000Y-78740000D03*
X156210000Y-78740000D03*
X153670000Y-78740000D03*
X151130000Y-78740000D03*
X148590000Y-78740000D03*
X146050000Y-78740000D03*
X143510000Y-78740000D03*
X140970000Y-78740000D03*
X138430000Y-78740000D03*
X135890000Y-78740000D03*
X133350000Y-78740000D03*
X130810000Y-78740000D03*
X128270000Y-78740000D03*
X125730000Y-78740000D03*
X123190000Y-78740000D03*
X120650000Y-78740000D03*
X118110000Y-78740000D03*
X115570000Y-78740000D03*
X113030000Y-78740000D03*
X110490000Y-78740000D03*
X107950000Y-78740000D03*
%TD*%
D17*
%TO.C,C5*%
X150686888Y-98933000D03*
D20*
X153186888Y-98933000D03*
%TD*%
D27*
%TO.C,U7*%
X130048000Y-62865000D03*
D28*
X130048000Y-73025000D03*
X147828000Y-73025000D03*
X147828000Y-62865000D03*
%TD*%
D29*
%TO.C,U6*%
X154302000Y-115951000D03*
X154302000Y-114681000D03*
X154302000Y-113411000D03*
X154302000Y-112141000D03*
X149352000Y-112141000D03*
X149352000Y-113411000D03*
X149352000Y-114681000D03*
X149352000Y-115951000D03*
%TD*%
D14*
%TO.C,R25*%
X159701000Y-113046000D03*
X159701000Y-115046000D03*
%TD*%
D30*
%TO.C,U5*%
X137101500Y-106430000D03*
X137101500Y-105780000D03*
X137101500Y-105130000D03*
X137101500Y-104480000D03*
X137101500Y-103830000D03*
X137101500Y-103180000D03*
X137101500Y-102530000D03*
X137101500Y-101880000D03*
X137101500Y-101230000D03*
X137101500Y-100580000D03*
X131376500Y-100580000D03*
X131376500Y-101230000D03*
X131376500Y-101880000D03*
X131376500Y-102530000D03*
X131376500Y-103180000D03*
X131376500Y-103830000D03*
X131376500Y-104480000D03*
X131376500Y-105130000D03*
X131376500Y-105780000D03*
X131376500Y-106430000D03*
%TD*%
D31*
%TO.C,J2*%
X123094000Y-64193500D03*
D32*
X117094000Y-64193500D03*
D33*
X120094000Y-68893500D03*
%TD*%
D34*
%TO.C,U8*%
X158623000Y-63246000D03*
D35*
X161163000Y-63246000D03*
X163703000Y-63246000D03*
%TD*%
D20*
%TO.C,C9*%
X157415000Y-112796000D03*
X157415000Y-115296000D03*
%TD*%
D36*
%TO.C,U2*%
X138938000Y-126619000D03*
X141478000Y-126619000D03*
X144018000Y-126619000D03*
X146558000Y-126619000D03*
X149098000Y-126619000D03*
X151638000Y-126619000D03*
X154178000Y-126619000D03*
%TD*%
M02*
